<svg width="20" height="18" viewBox="0 0 20 18" fill="none" xmlns="http://www.w3.org/2000/svg">
<path fill-rule="evenodd" clip-rule="evenodd" d="M4 0C1.79086 0 0 1.79086 0 4V10.8889C0 12.6071 1.39289 14 3.11111 14C3.32589 14 3.5 14.1741 3.5 14.3889V16.9597C3.5 17.3789 3.98497 17.612 4.31235 17.3501L8.36304 14.1096C8.4517 14.0386 8.56185 14 8.67539 14H16C18.2091 14 20 12.2091 20 10V4C20 1.79086 18.2091 0 16 0H4ZM6 8C6.55228 8 7 7.55228 7 7C7 6.44772 6.55228 6 6 6C5.44772 6 5 6.44772 5 7C5 7.55228 5.44772 8 6 8ZM11 7C11 7.55228 10.5523 8 10 8C9.44771 8 9 7.55228 9 7C9 6.44772 9.44771 6 10 6C10.5523 6 11 6.44772 11 7ZM14 8C14.5523 8 15 7.55228 15 7C15 6.44772 14.5523 6 14 6C13.4477 6 13 6.44772 13 7C13 7.55228 13.4477 8 14 8Z" fill="#808191"/>
</svg>
