<svg width="80" height="81" viewBox="0 0 80 81" fill="none" xmlns="http://www.w3.org/2000/svg">
<path fill-rule="evenodd" clip-rule="evenodd" d="M39.3443 0.5C24.0297 0.5 11.6148 12.9149 11.6148 28.2295V32.8419C4.91983 34.6761 0 40.804 0 48.0811C0 56.8067 7.07356 63.8803 15.7992 63.8803H18.3607C19.8093 63.8803 20.9836 62.7059 20.9836 61.2573V34.9048C20.9836 33.4562 19.8093 32.2818 18.3607 32.2818H15.7992C15.4008 32.2818 15.0058 32.2966 14.6148 32.3256V28.2295C14.6148 14.5718 25.6865 3.5 39.3443 3.5C53.002 3.5 64.0738 14.5718 64.0738 28.2295V32.2818H61.6393C60.1907 32.2818 59.0164 33.4562 59.0164 34.9048V61.2573C59.0164 62.7059 60.1907 63.8803 61.6393 63.8803H64.0738V64.4251C64.0738 69.1129 60.2736 72.9131 55.5858 72.9131H48.3529C47.6741 70.0001 45.0613 67.8301 41.9416 67.8301H38.0584C34.4227 67.8301 31.4754 70.7774 31.4754 74.4131C31.4754 78.0488 34.4227 80.9961 38.0584 80.9961H41.9416C45.0612 80.9961 47.6741 78.826 48.3529 75.9131H55.5858C61.9304 75.9131 67.0738 70.7697 67.0738 64.4251V63.6197C74.4277 62.2687 80 55.8256 80 48.0811C80 40.3365 74.4277 33.8934 67.0738 32.5424V28.2295C67.0738 12.9149 54.6588 0.5 39.3443 0.5Z" fill="#38ABBE"/>
</svg>
